<?xml version="1.0" encoding="UTF-8" standalone="no"?>
<!-- Created with Inkscape (http://www.inkscape.org/) -->

<svg
   xmlns:dc="http://purl.org/dc/elements/1.1/"
   xmlns:cc="http://creativecommons.org/ns#"
   xmlns:rdf="http://www.w3.org/1999/02/22-rdf-syntax-ns#"
   xmlns:svg="http://www.w3.org/2000/svg"
   xmlns="http://www.w3.org/2000/svg"
   xmlns:sodipodi="http://sodipodi.sourceforge.net/DTD/sodipodi-0.dtd"
   xmlns:inkscape="http://www.inkscape.org/namespaces/inkscape"
   width="210mm"
   height="297mm"
   viewBox="0 0 210 297"
   version="1.1"
   id="svg8"
   inkscape:version="0.92.4 5da689c313, 2019-01-14"
   sodipodi:docname="ci.svg">
  <defs
     id="defs2" />
  <sodipodi:namedview
     id="base"
     pagecolor="#ffffff"
     bordercolor="#666666"
     borderopacity="1.0"
     inkscape:pageopacity="0.0"
     inkscape:pageshadow="2"
     inkscape:zoom="0.49497475"
     inkscape:cx="-115.21596"
     inkscape:cy="568.70602"
     inkscape:document-units="mm"
     inkscape:current-layer="layer1"
     showgrid="false"
     inkscape:window-width="1276"
     inkscape:window-height="977"
     inkscape:window-x="0"
     inkscape:window-y="22"
     inkscape:window-maximized="0" />
  <metadata
     id="metadata5">
    <rdf:RDF>
      <cc:Work
         rdf:about="">
        <dc:format>image/svg+xml</dc:format>
        <dc:type
           rdf:resource="http://purl.org/dc/dcmitype/StillImage" />
        <dc:title></dc:title>
      </cc:Work>
    </rdf:RDF>
  </metadata>
  <g
     inkscape:label="Layer 1"
     inkscape:groupmode="layer"
     id="layer1">
    <g
       id="g901"
       inkscape:export-xdpi="185.06"
       inkscape:export-ydpi="185.06">
      <path
         sodipodi:nodetypes="ccc"
         inkscape:connector-curvature="0"
         id="path859"
         d="m 22.584275,68.083649 34.611402,34.611401 -34.611402,34.6114"
         style="fill:none;stroke:#000000;stroke-width:0.26458332px;stroke-linecap:butt;stroke-linejoin:miter;stroke-opacity:1" />
      <path
         sodipodi:nodetypes="ccc"
         inkscape:connector-curvature="0"
         id="path865"
         d="M 25.986061,137.30645 60.597463,102.69505 25.986061,68.083649"
         style="fill:none;stroke:#000000;stroke-width:0.26458332px;stroke-linecap:butt;stroke-linejoin:miter;stroke-opacity:1" />
      <path
         sodipodi:nodetypes="ccccc"
         style="fill:none;stroke:#000000;stroke-width:0.26458332px;stroke-linecap:butt;stroke-linejoin:miter;stroke-opacity:1"
         d="m 29.387847,137.30645 33.524227,-33.54302 h 25.702381 l 0.846319,0 33.524216,33.54302"
         id="path869"
         inkscape:connector-curvature="0" />
      <path
         sodipodi:nodetypes="ccccc"
         style="fill:none;stroke:#000000;stroke-width:0.26458332px;stroke-linecap:butt;stroke-linejoin:miter;stroke-opacity:1"
         d="m 122.98499,68.083649 -33.524216,33.575031 -0.846319,0 H 62.912074 L 29.387847,68.083649"
         id="path875"
         inkscape:connector-curvature="0" />
      <path
         sodipodi:nodetypes="cccc"
         inkscape:connector-curvature="0"
         id="path879"
         d="m 129.78856,137.30645 -34.611396,-34.6114 v 0 L 129.78856,68.083649"
         style="fill:none;stroke:#000000;stroke-width:0.26458332px;stroke-linecap:butt;stroke-linejoin:miter;stroke-opacity:1" />
      <path
         sodipodi:nodetypes="ccc"
         inkscape:connector-curvature="0"
         id="path881"
         d="m 126.38678,68.083649 -34.611396,34.611401 34.611396,34.6114"
         style="fill:none;stroke:#000000;stroke-width:0.26458332px;stroke-linecap:butt;stroke-linejoin:miter;stroke-opacity:1" />
    </g>
    <text
       xml:space="preserve"
       style="font-style:normal;font-weight:normal;font-size:10.58333302px;line-height:1.25;font-family:sans-serif;letter-spacing:0px;word-spacing:0px;fill:#000000;fill-opacity:1;stroke:none;stroke-width:0.26458332"
       x="22.45064"
       y="62.070084"
       id="text905"
       inkscape:export-xdpi="185.06"
       inkscape:export-ydpi="185.06"><tspan
         sodipodi:role="line"
         id="tspan903"
         x="22.45064"
         y="62.070084"
         style="stroke-width:0.26458332">q</tspan></text>
    <text
       id="text909"
       y="147.32907"
       x="22.45064"
       style="font-style:normal;font-weight:normal;font-size:10.58333302px;line-height:1.25;font-family:sans-serif;letter-spacing:0px;word-spacing:0px;fill:#000000;fill-opacity:1;stroke:none;stroke-width:0.26458332"
       xml:space="preserve"
       inkscape:export-xdpi="185.06"
       inkscape:export-ydpi="185.06"><tspan
         style="stroke-width:0.26458332"
         y="147.32907"
         x="22.45064"
         id="tspan907"
         sodipodi:role="line">q</tspan></text>
    <path
       style="fill:none;stroke:#000000;stroke-width:0.965;stroke-linecap:butt;stroke-linejoin:miter;stroke-opacity:1;stroke-miterlimit:4;stroke-dasharray:none"
       d="m 23.252449,140.31324 h 4.744034"
       id="path911"
       inkscape:connector-curvature="0"
       inkscape:export-xdpi="185.06"
       inkscape:export-ydpi="185.06" />
    <path
       style="fill:none;stroke:#000000;stroke-width:0.86500001;stroke-linecap:butt;stroke-linejoin:miter;stroke-miterlimit:4;stroke-dasharray:none;stroke-opacity:1"
       d="m 123.68487,64.007787 c 0,0 5.94674,-6.748555 3.4745,-7.61718 -2.47224,-0.26727 -1.73725,3.674955 0.53454,7.550365"
       id="path917"
       inkscape:connector-curvature="0"
       sodipodi:nodetypes="ccc"
       inkscape:export-xdpi="185.06"
       inkscape:export-ydpi="185.06" />
    <path
       sodipodi:nodetypes="ccc"
       inkscape:connector-curvature="0"
       id="path921"
       d="m 123.68487,64.007787 c 0,0 5.94674,-6.748555 3.4745,-7.61718 -2.47224,-0.26727 -1.73725,3.674955 0.53454,7.550365"
       style="fill:none;stroke:#000000;stroke-width:0.86500001;stroke-linecap:butt;stroke-linejoin:miter;stroke-miterlimit:4;stroke-dasharray:none;stroke-opacity:1"
       inkscape:export-xdpi="185.06"
       inkscape:export-ydpi="185.06" />
    <path
       style="fill:none;stroke:#000000;stroke-width:0.86500001;stroke-linecap:butt;stroke-linejoin:miter;stroke-miterlimit:4;stroke-dasharray:none;stroke-opacity:1"
       d="m 123.68487,64.007787 c 0,0 5.94674,-6.748555 3.4745,-7.61718 -2.47224,-0.26727 -1.73725,3.674955 0.53454,7.550365"
       id="path942"
       inkscape:connector-curvature="0"
       sodipodi:nodetypes="ccc"
       inkscape:export-xdpi="185.06"
       inkscape:export-ydpi="185.06" />
    <path
       style="fill:none;stroke:#000000;stroke-width:0.86500001;stroke-linecap:butt;stroke-linejoin:miter;stroke-miterlimit:4;stroke-dasharray:none;stroke-opacity:1"
       d="m 129.55133,56.682642 h 2.74033"
       id="path944"
       inkscape:connector-curvature="0"
       inkscape:export-xdpi="185.06"
       inkscape:export-ydpi="185.06" />
    <path
       sodipodi:nodetypes="ccc"
       inkscape:connector-curvature="0"
       id="path946"
       d="m 123.68487,148.40997 c 0,0 5.94674,-6.74856 3.4745,-7.61718 -2.47224,-0.26727 -1.73725,3.67495 0.53454,7.55036"
       style="fill:none;stroke:#000000;stroke-width:0.86500001;stroke-linecap:butt;stroke-linejoin:miter;stroke-miterlimit:4;stroke-dasharray:none;stroke-opacity:1"
       inkscape:export-xdpi="185.06"
       inkscape:export-ydpi="185.06" />
    <path
       style="fill:none;stroke:#000000;stroke-width:0.86500001;stroke-linecap:butt;stroke-linejoin:miter;stroke-miterlimit:4;stroke-dasharray:none;stroke-opacity:1"
       d="m 123.68487,148.40997 c 0,0 5.94674,-6.74856 3.4745,-7.61718 -2.47224,-0.26727 -1.73725,3.67495 0.53454,7.55036"
       id="path948"
       inkscape:connector-curvature="0"
       sodipodi:nodetypes="ccc"
       inkscape:export-xdpi="185.06"
       inkscape:export-ydpi="185.06" />
    <path
       sodipodi:nodetypes="ccc"
       inkscape:connector-curvature="0"
       id="path950"
       d="m 123.68487,148.40997 c 0,0 5.94674,-6.74856 3.4745,-7.61718 -2.47224,-0.26727 -1.73725,3.67495 0.53454,7.55036"
       style="fill:none;stroke:#000000;stroke-width:0.86500001;stroke-linecap:butt;stroke-linejoin:miter;stroke-miterlimit:4;stroke-dasharray:none;stroke-opacity:1"
       inkscape:export-xdpi="185.06"
       inkscape:export-ydpi="185.06" />
    <path
       inkscape:connector-curvature="0"
       id="path952"
       d="m 129.55133,141.08482 h 2.74033"
       style="fill:none;stroke:#000000;stroke-width:0.86500001;stroke-linecap:butt;stroke-linejoin:miter;stroke-miterlimit:4;stroke-dasharray:none;stroke-opacity:1"
       inkscape:export-xdpi="185.06"
       inkscape:export-ydpi="185.06" />
    <path
       style="fill:none;stroke:#000000;stroke-width:0.86500001;stroke-linecap:butt;stroke-linejoin:miter;stroke-miterlimit:4;stroke-dasharray:none;stroke-opacity:1"
       d="m 130.9215,139.71466 v 2.74033"
       id="path954"
       inkscape:connector-curvature="0"
       inkscape:export-xdpi="185.06"
       inkscape:export-ydpi="185.06" />
    <path
       sodipodi:nodetypes="cccc"
       inkscape:connector-curvature="0"
       id="path994"
       d="m 22.584275,170.18061 14.92986,14.93843 m 0,39.30953 -14.92986,14.97484"
       style="fill:none;stroke:#000000;stroke-width:0.26458332px;stroke-linecap:butt;stroke-linejoin:miter;stroke-opacity:1"
       inkscape:export-xdpi="306.87"
       inkscape:export-ydpi="306.87" />
    <path
       sodipodi:nodetypes="cccc"
       inkscape:connector-curvature="0"
       id="path996"
       d="M 25.986061,239.40341 39.21503,226.03497 m 0,-42.71131 -13.228969,-13.14305"
       style="fill:none;stroke:#000000;stroke-width:0.26458332px;stroke-linecap:butt;stroke-linejoin:miter;stroke-opacity:1"
       inkscape:export-xdpi="306.87"
       inkscape:export-ydpi="306.87" />
    <path
       sodipodi:nodetypes="cc"
       style="fill:none;stroke:#000000;stroke-width:0.26458332px;stroke-linecap:butt;stroke-linejoin:miter;stroke-opacity:1"
       d="M 29.387847,239.40341 41.010416,227.92485"
       id="path998"
       inkscape:connector-curvature="0"
       inkscape:export-xdpi="306.87"
       inkscape:export-ydpi="306.87" />
    <path
       sodipodi:nodetypes="cc"
       style="fill:none;stroke:#000000;stroke-width:0.26458332px;stroke-linecap:butt;stroke-linejoin:miter;stroke-opacity:1"
       d="M 41.010416,181.62277 29.387847,170.18061"
       id="path1000"
       inkscape:connector-curvature="0"
       inkscape:export-xdpi="306.87"
       inkscape:export-ydpi="306.87" />
    <path
       style="fill:none;stroke:#000000;stroke-width:0.26458332px;stroke-linecap:butt;stroke-linejoin:miter;stroke-opacity:1"
       d="m 37.514135,185.11904 v 39.30953"
       id="path1008"
       inkscape:connector-curvature="0"
       inkscape:export-xdpi="306.87"
       inkscape:export-ydpi="306.87" />
    <path
       style="fill:none;stroke:#000000;stroke-width:0.26458332px;stroke-linecap:butt;stroke-linejoin:miter;stroke-opacity:1"
       d="m 39.21503,183.32366 v 42.71131"
       id="path1012"
       inkscape:connector-curvature="0"
       inkscape:export-xdpi="306.87"
       inkscape:export-ydpi="306.87" />
    <path
       style="fill:none;stroke:#000000;stroke-width:0.26458332px;stroke-linecap:butt;stroke-linejoin:miter;stroke-opacity:1"
       d="m 41.010416,181.62277 v 46.30208"
       id="path1014"
       inkscape:connector-curvature="0"
       inkscape:export-xdpi="306.87"
       inkscape:export-ydpi="306.87" />
    <path
       style="fill:none;stroke:#000000;stroke-width:0.26458332px;stroke-linecap:butt;stroke-linejoin:miter;stroke-opacity:1"
       d="m 86.02819,170.18061 -14.92986,14.93843 m 0,39.30953 14.92986,14.97484"
       id="path1038"
       inkscape:connector-curvature="0"
       sodipodi:nodetypes="cccc"
       inkscape:export-xdpi="306.87"
       inkscape:export-ydpi="306.87" />
    <path
       style="fill:none;stroke:#000000;stroke-width:0.26458332px;stroke-linecap:butt;stroke-linejoin:miter;stroke-opacity:1"
       d="M 82.626404,239.40341 69.397435,226.03497 m 0,-42.71131 13.228969,-13.14305"
       id="path1040"
       inkscape:connector-curvature="0"
       sodipodi:nodetypes="cccc"
       inkscape:export-xdpi="306.87"
       inkscape:export-ydpi="306.87" />
    <path
       inkscape:connector-curvature="0"
       id="path1042"
       d="M 79.224618,239.40341 67.602049,227.92485"
       style="fill:none;stroke:#000000;stroke-width:0.26458332px;stroke-linecap:butt;stroke-linejoin:miter;stroke-opacity:1"
       sodipodi:nodetypes="cc"
       inkscape:export-xdpi="306.87"
       inkscape:export-ydpi="306.87" />
    <path
       inkscape:connector-curvature="0"
       id="path1044"
       d="M 67.602049,181.62277 79.224618,170.18061"
       style="fill:none;stroke:#000000;stroke-width:0.26458332px;stroke-linecap:butt;stroke-linejoin:miter;stroke-opacity:1"
       sodipodi:nodetypes="cc"
       inkscape:export-xdpi="306.87"
       inkscape:export-ydpi="306.87" />
    <path
       inkscape:connector-curvature="0"
       id="path1046"
       d="m 71.09833,185.11904 v 39.30953"
       style="fill:none;stroke:#000000;stroke-width:0.26458332px;stroke-linecap:butt;stroke-linejoin:miter;stroke-opacity:1"
       inkscape:export-xdpi="306.87"
       inkscape:export-ydpi="306.87" />
    <path
       inkscape:connector-curvature="0"
       id="path1048"
       d="m 69.397435,183.32366 v 42.71131"
       style="fill:none;stroke:#000000;stroke-width:0.26458332px;stroke-linecap:butt;stroke-linejoin:miter;stroke-opacity:1"
       inkscape:export-xdpi="306.87"
       inkscape:export-ydpi="306.87" />
    <path
       inkscape:connector-curvature="0"
       id="path1050"
       d="m 67.602049,181.62277 v 46.30208"
       style="fill:none;stroke:#000000;stroke-width:0.26458332px;stroke-linecap:butt;stroke-linejoin:miter;stroke-opacity:1"
       inkscape:export-xdpi="306.87"
       inkscape:export-ydpi="306.87" />
    <g
       id="g1084"
       transform="matrix(0.95879619,0,0,1.0000771,1.6918795,-0.0169579)"
       inkscape:export-xdpi="306.87"
       inkscape:export-ydpi="306.87">
      <path
         sodipodi:nodetypes="ccccc"
         inkscape:connector-curvature="0"
         id="path1054"
         d="m 41.059282,220.76136 h 1.00226 c 0.696894,0.0177 2.13225,-1.79798 0.968851,-1.87088 -1.169304,0.0334 0.07776,1.85704 0.556135,1.86885 l 1.122587,0.002"
         style="fill:none;stroke:#000000;stroke-width:0.26458332px;stroke-linecap:butt;stroke-linejoin:miter;stroke-opacity:1" />
      <path
         style="fill:none;stroke:#000000;stroke-width:0.26458332px;stroke-linecap:butt;stroke-linejoin:miter;stroke-opacity:1"
         d="m 43.705115,220.76136 h 1.00226 c 0.696894,0.0177 2.13225,-1.79798 0.968851,-1.87088 -1.169304,0.0334 0.07776,1.85704 0.556135,1.86885 l 1.122587,0.002"
         id="path1056"
         inkscape:connector-curvature="0"
         sodipodi:nodetypes="ccccc" />
      <path
         sodipodi:nodetypes="ccccc"
         inkscape:connector-curvature="0"
         id="path1058"
         d="m 46.350948,220.76136 h 1.00226 c 0.696894,0.0177 2.13225,-1.79798 0.968851,-1.87088 -1.169304,0.0334 0.07776,1.85704 0.556135,1.86885 l 1.122587,0.002"
         style="fill:none;stroke:#000000;stroke-width:0.26458332px;stroke-linecap:butt;stroke-linejoin:miter;stroke-opacity:1" />
      <path
         style="fill:none;stroke:#000000;stroke-width:0.26458332px;stroke-linecap:butt;stroke-linejoin:miter;stroke-opacity:1"
         d="m 49.138522,220.76136 h 1.00226 c 0.696894,0.0177 2.13225,-1.79798 0.968851,-1.87088 -1.169304,0.0334 0.07776,1.85704 0.556135,1.86885 l 1.122587,0.002"
         id="path1060"
         inkscape:connector-curvature="0"
         sodipodi:nodetypes="ccccc" />
      <path
         style="fill:none;stroke:#000000;stroke-width:0.26458332px;stroke-linecap:butt;stroke-linejoin:miter;stroke-opacity:1"
         d="m 51.689862,220.76136 h 1.00226 c 0.696894,0.0177 2.13225,-1.79798 0.968851,-1.87088 -1.169304,0.0334 0.07776,1.85704 0.556135,1.86885 l 1.122587,0.002"
         id="path1062"
         inkscape:connector-curvature="0"
         sodipodi:nodetypes="ccccc" />
      <path
         sodipodi:nodetypes="ccccc"
         inkscape:connector-curvature="0"
         id="path1064"
         d="m 54.335695,220.76136 h 1.00226 c 0.696894,0.0177 2.13225,-1.79798 0.968851,-1.87088 -1.169304,0.0334 0.07776,1.85704 0.556135,1.86885 l 1.122587,0.002"
         style="fill:none;stroke:#000000;stroke-width:0.26458332px;stroke-linecap:butt;stroke-linejoin:miter;stroke-opacity:1" />
      <path
         style="fill:none;stroke:#000000;stroke-width:0.26458332px;stroke-linecap:butt;stroke-linejoin:miter;stroke-opacity:1"
         d="m 56.981528,220.76136 h 1.00226 c 0.696894,0.0177 2.13225,-1.79798 0.968851,-1.87088 -1.169304,0.0334 0.07776,1.85704 0.556135,1.86885 l 1.122587,0.002"
         id="path1066"
         inkscape:connector-curvature="0"
         sodipodi:nodetypes="ccccc" />
      <path
         sodipodi:nodetypes="ccccc"
         inkscape:connector-curvature="0"
         id="path1068"
         d="m 59.769102,220.76136 h 1.00226 c 0.696894,0.0177 2.13225,-1.79798 0.968851,-1.87088 -1.169304,0.0334 0.07776,1.85704 0.556135,1.86885 l 1.122587,0.002"
         style="fill:none;stroke:#000000;stroke-width:0.26458332px;stroke-linecap:butt;stroke-linejoin:miter;stroke-opacity:1" />
      <path
         style="fill:none;stroke:#000000;stroke-width:0.26458332px;stroke-linecap:butt;stroke-linejoin:miter;stroke-opacity:1"
         d="m 62.341571,220.76136 h 1.00226 c 0.696894,0.0177 2.13225,-1.79798 0.968851,-1.87088 -1.169304,0.0334 0.07776,1.85704 0.556135,1.86885 l 1.122587,0.002"
         id="path1070"
         inkscape:connector-curvature="0"
         sodipodi:nodetypes="ccccc" />
      <path
         sodipodi:nodetypes="ccccc"
         inkscape:connector-curvature="0"
         id="path1072"
         d="m 64.980858,220.76136 h 1.00226 c 0.696894,0.0177 2.13225,-1.79798 0.968851,-1.87088 -1.169304,0.0334 0.07776,1.85704 0.556135,1.86885 l 1.122587,0.002"
         style="fill:none;stroke:#000000;stroke-width:0.26458332px;stroke-linecap:butt;stroke-linejoin:miter;stroke-opacity:1" />
    </g>
    <g
       transform="matrix(0.95879619,0,0,1.0000771,1.6918795,-15.050869)"
       id="g1106"
       inkscape:export-xdpi="306.87"
       inkscape:export-ydpi="306.87">
      <path
         style="fill:none;stroke:#000000;stroke-width:0.26458332px;stroke-linecap:butt;stroke-linejoin:miter;stroke-opacity:1"
         d="m 41.059282,220.76136 h 1.00226 c 0.696894,0.0177 2.13225,-1.79798 0.968851,-1.87088 -1.169304,0.0334 0.07776,1.85704 0.556135,1.86885 l 1.122587,0.002"
         id="path1086"
         inkscape:connector-curvature="0"
         sodipodi:nodetypes="ccccc" />
      <path
         sodipodi:nodetypes="ccccc"
         inkscape:connector-curvature="0"
         id="path1088"
         d="m 43.705115,220.76136 h 1.00226 c 0.696894,0.0177 2.13225,-1.79798 0.968851,-1.87088 -1.169304,0.0334 0.07776,1.85704 0.556135,1.86885 l 1.122587,0.002"
         style="fill:none;stroke:#000000;stroke-width:0.26458332px;stroke-linecap:butt;stroke-linejoin:miter;stroke-opacity:1" />
      <path
         style="fill:none;stroke:#000000;stroke-width:0.26458332px;stroke-linecap:butt;stroke-linejoin:miter;stroke-opacity:1"
         d="m 46.350948,220.76136 h 1.00226 c 0.696894,0.0177 2.13225,-1.79798 0.968851,-1.87088 -1.169304,0.0334 0.07776,1.85704 0.556135,1.86885 l 1.122587,0.002"
         id="path1090"
         inkscape:connector-curvature="0"
         sodipodi:nodetypes="ccccc" />
      <path
         sodipodi:nodetypes="ccccc"
         inkscape:connector-curvature="0"
         id="path1092"
         d="m 49.138522,220.76136 h 1.00226 c 0.696894,0.0177 2.13225,-1.79798 0.968851,-1.87088 -1.169304,0.0334 0.07776,1.85704 0.556135,1.86885 l 1.122587,0.002"
         style="fill:none;stroke:#000000;stroke-width:0.26458332px;stroke-linecap:butt;stroke-linejoin:miter;stroke-opacity:1" />
      <path
         sodipodi:nodetypes="ccccc"
         inkscape:connector-curvature="0"
         id="path1094"
         d="m 51.689862,220.76136 h 1.00226 c 0.696894,0.0177 2.13225,-1.79798 0.968851,-1.87088 -1.169304,0.0334 0.07776,1.85704 0.556135,1.86885 l 1.122587,0.002"
         style="fill:none;stroke:#000000;stroke-width:0.26458332px;stroke-linecap:butt;stroke-linejoin:miter;stroke-opacity:1" />
      <path
         style="fill:none;stroke:#000000;stroke-width:0.26458332px;stroke-linecap:butt;stroke-linejoin:miter;stroke-opacity:1"
         d="m 54.335695,220.76136 h 1.00226 c 0.696894,0.0177 2.13225,-1.79798 0.968851,-1.87088 -1.169304,0.0334 0.07776,1.85704 0.556135,1.86885 l 1.122587,0.002"
         id="path1096"
         inkscape:connector-curvature="0"
         sodipodi:nodetypes="ccccc" />
      <path
         sodipodi:nodetypes="ccccc"
         inkscape:connector-curvature="0"
         id="path1098"
         d="m 56.981528,220.76136 h 1.00226 c 0.696894,0.0177 2.13225,-1.79798 0.968851,-1.87088 -1.169304,0.0334 0.07776,1.85704 0.556135,1.86885 l 1.122587,0.002"
         style="fill:none;stroke:#000000;stroke-width:0.26458332px;stroke-linecap:butt;stroke-linejoin:miter;stroke-opacity:1" />
      <path
         style="fill:none;stroke:#000000;stroke-width:0.26458332px;stroke-linecap:butt;stroke-linejoin:miter;stroke-opacity:1"
         d="m 59.769102,220.76136 h 1.00226 c 0.696894,0.0177 2.13225,-1.79798 0.968851,-1.87088 -1.169304,0.0334 0.07776,1.85704 0.556135,1.86885 l 1.122587,0.002"
         id="path1100"
         inkscape:connector-curvature="0"
         sodipodi:nodetypes="ccccc" />
      <path
         sodipodi:nodetypes="ccccc"
         inkscape:connector-curvature="0"
         id="path1102"
         d="m 62.341571,220.76136 h 1.00226 c 0.696894,0.0177 2.13225,-1.79798 0.968851,-1.87088 -1.169304,0.0334 0.07776,1.85704 0.556135,1.86885 l 1.122587,0.002"
         style="fill:none;stroke:#000000;stroke-width:0.26458332px;stroke-linecap:butt;stroke-linejoin:miter;stroke-opacity:1" />
      <path
         style="fill:none;stroke:#000000;stroke-width:0.26458332px;stroke-linecap:butt;stroke-linejoin:miter;stroke-opacity:1"
         d="m 64.980858,220.76136 h 1.00226 c 0.696894,0.0177 2.13225,-1.79798 0.968851,-1.87088 -1.169304,0.0334 0.07776,1.85704 0.556135,1.86885 l 1.122587,0.002"
         id="path1104"
         inkscape:connector-curvature="0"
         sodipodi:nodetypes="ccccc" />
    </g>
    <g
       id="g1128"
       transform="matrix(0.95879619,0,0,1.0000771,1.6918795,-31.220675)"
       inkscape:export-xdpi="306.87"
       inkscape:export-ydpi="306.87">
      <path
         sodipodi:nodetypes="ccccc"
         inkscape:connector-curvature="0"
         id="path1108"
         d="m 41.059282,220.76136 h 1.00226 c 0.696894,0.0177 2.13225,-1.79798 0.968851,-1.87088 -1.169304,0.0334 0.07776,1.85704 0.556135,1.86885 l 1.122587,0.002"
         style="fill:none;stroke:#000000;stroke-width:0.26458332px;stroke-linecap:butt;stroke-linejoin:miter;stroke-opacity:1" />
      <path
         style="fill:none;stroke:#000000;stroke-width:0.26458332px;stroke-linecap:butt;stroke-linejoin:miter;stroke-opacity:1"
         d="m 43.705115,220.76136 h 1.00226 c 0.696894,0.0177 2.13225,-1.79798 0.968851,-1.87088 -1.169304,0.0334 0.07776,1.85704 0.556135,1.86885 l 1.122587,0.002"
         id="path1110"
         inkscape:connector-curvature="0"
         sodipodi:nodetypes="ccccc" />
      <path
         sodipodi:nodetypes="ccccc"
         inkscape:connector-curvature="0"
         id="path1112"
         d="m 46.350948,220.76136 h 1.00226 c 0.696894,0.0177 2.13225,-1.79798 0.968851,-1.87088 -1.169304,0.0334 0.07776,1.85704 0.556135,1.86885 l 1.122587,0.002"
         style="fill:none;stroke:#000000;stroke-width:0.26458332px;stroke-linecap:butt;stroke-linejoin:miter;stroke-opacity:1" />
      <path
         style="fill:none;stroke:#000000;stroke-width:0.26458332px;stroke-linecap:butt;stroke-linejoin:miter;stroke-opacity:1"
         d="m 49.138522,220.76136 h 1.00226 c 0.696894,0.0177 2.13225,-1.79798 0.968851,-1.87088 -1.169304,0.0334 0.07776,1.85704 0.556135,1.86885 l 1.122587,0.002"
         id="path1114"
         inkscape:connector-curvature="0"
         sodipodi:nodetypes="ccccc" />
      <path
         style="fill:none;stroke:#000000;stroke-width:0.26458332px;stroke-linecap:butt;stroke-linejoin:miter;stroke-opacity:1"
         d="m 51.689862,220.76136 h 1.00226 c 0.696894,0.0177 2.13225,-1.79798 0.968851,-1.87088 -1.169304,0.0334 0.07776,1.85704 0.556135,1.86885 l 1.122587,0.002"
         id="path1116"
         inkscape:connector-curvature="0"
         sodipodi:nodetypes="ccccc" />
      <path
         sodipodi:nodetypes="ccccc"
         inkscape:connector-curvature="0"
         id="path1118"
         d="m 54.335695,220.76136 h 1.00226 c 0.696894,0.0177 2.13225,-1.79798 0.968851,-1.87088 -1.169304,0.0334 0.07776,1.85704 0.556135,1.86885 l 1.122587,0.002"
         style="fill:none;stroke:#000000;stroke-width:0.26458332px;stroke-linecap:butt;stroke-linejoin:miter;stroke-opacity:1" />
      <path
         style="fill:none;stroke:#000000;stroke-width:0.26458332px;stroke-linecap:butt;stroke-linejoin:miter;stroke-opacity:1"
         d="m 56.981528,220.76136 h 1.00226 c 0.696894,0.0177 2.13225,-1.79798 0.968851,-1.87088 -1.169304,0.0334 0.07776,1.85704 0.556135,1.86885 l 1.122587,0.002"
         id="path1120"
         inkscape:connector-curvature="0"
         sodipodi:nodetypes="ccccc" />
      <path
         sodipodi:nodetypes="ccccc"
         inkscape:connector-curvature="0"
         id="path1122"
         d="m 59.769102,220.76136 h 1.00226 c 0.696894,0.0177 2.13225,-1.79798 0.968851,-1.87088 -1.169304,0.0334 0.07776,1.85704 0.556135,1.86885 l 1.122587,0.002"
         style="fill:none;stroke:#000000;stroke-width:0.26458332px;stroke-linecap:butt;stroke-linejoin:miter;stroke-opacity:1" />
      <path
         style="fill:none;stroke:#000000;stroke-width:0.26458332px;stroke-linecap:butt;stroke-linejoin:miter;stroke-opacity:1"
         d="m 62.341571,220.76136 h 1.00226 c 0.696894,0.0177 2.13225,-1.79798 0.968851,-1.87088 -1.169304,0.0334 0.07776,1.85704 0.556135,1.86885 l 1.122587,0.002"
         id="path1124"
         inkscape:connector-curvature="0"
         sodipodi:nodetypes="ccccc" />
      <path
         sodipodi:nodetypes="ccccc"
         inkscape:connector-curvature="0"
         id="path1126"
         d="m 64.980858,220.76136 h 1.00226 c 0.696894,0.0177 2.13225,-1.79798 0.968851,-1.87088 -1.169304,0.0334 0.07776,1.85704 0.556135,1.86885 l 1.122587,0.002"
         style="fill:none;stroke:#000000;stroke-width:0.26458332px;stroke-linecap:butt;stroke-linejoin:miter;stroke-opacity:1" />
    </g>
    <text
       inkscape:export-ydpi="306.87"
       inkscape:export-xdpi="306.87"
       id="text1132"
       y="164.61505"
       x="22.488436"
       style="font-style:normal;font-weight:normal;font-size:10.58333302px;line-height:1.25;font-family:sans-serif;letter-spacing:0px;word-spacing:0px;fill:#000000;fill-opacity:1;stroke:none;stroke-width:0.26458332"
       xml:space="preserve"><tspan
         style="stroke-width:0.26458332"
         y="164.61505"
         x="22.488436"
         id="tspan1130"
         sodipodi:role="line">q</tspan></text>
    <text
       inkscape:export-ydpi="306.87"
       inkscape:export-xdpi="306.87"
       xml:space="preserve"
       style="font-style:normal;font-weight:normal;font-size:10.58333302px;line-height:1.25;font-family:sans-serif;letter-spacing:0px;word-spacing:0px;fill:#000000;fill-opacity:1;stroke:none;stroke-width:0.26458332"
       x="22.488436"
       y="249.87404"
       id="text1136"><tspan
         sodipodi:role="line"
         id="tspan1134"
         x="22.488436"
         y="249.87404"
         style="stroke-width:0.26458332">q</tspan></text>
    <path
       inkscape:export-ydpi="306.87"
       inkscape:export-xdpi="306.87"
       inkscape:connector-curvature="0"
       id="path1138"
       d="M 23.290246,242.85817 H 28.03428"
       style="fill:none;stroke:#000000;stroke-width:0.96499997;stroke-linecap:butt;stroke-linejoin:miter;stroke-miterlimit:4;stroke-dasharray:none;stroke-opacity:1" />
    <path
       inkscape:export-ydpi="306.87"
       inkscape:export-xdpi="306.87"
       sodipodi:nodetypes="ccc"
       inkscape:connector-curvature="0"
       id="path1140"
       d="m 80.1005,167.43292 c 0,0 5.94674,-6.74856 3.4745,-7.61718 -2.47224,-0.26727 -1.73725,3.67495 0.53454,7.55036"
       style="fill:none;stroke:#000000;stroke-width:0.86500001;stroke-linecap:butt;stroke-linejoin:miter;stroke-miterlimit:4;stroke-dasharray:none;stroke-opacity:1" />
    <path
       inkscape:export-ydpi="306.87"
       inkscape:export-xdpi="306.87"
       style="fill:none;stroke:#000000;stroke-width:0.86500001;stroke-linecap:butt;stroke-linejoin:miter;stroke-miterlimit:4;stroke-dasharray:none;stroke-opacity:1"
       d="m 80.1005,167.43292 c 0,0 5.94674,-6.74856 3.4745,-7.61718 -2.47224,-0.26727 -1.73725,3.67495 0.53454,7.55036"
       id="path1142"
       inkscape:connector-curvature="0"
       sodipodi:nodetypes="ccc" />
    <path
       inkscape:export-ydpi="306.87"
       inkscape:export-xdpi="306.87"
       sodipodi:nodetypes="ccc"
       inkscape:connector-curvature="0"
       id="path1144"
       d="m 80.1005,167.43292 c 0,0 5.94674,-6.74856 3.4745,-7.61718 -2.47224,-0.26727 -1.73725,3.67495 0.53454,7.55036"
       style="fill:none;stroke:#000000;stroke-width:0.86500001;stroke-linecap:butt;stroke-linejoin:miter;stroke-miterlimit:4;stroke-dasharray:none;stroke-opacity:1" />
    <path
       inkscape:export-ydpi="306.87"
       inkscape:export-xdpi="306.87"
       inkscape:connector-curvature="0"
       id="path1146"
       d="m 85.96696,160.10777 h 2.74033"
       style="fill:none;stroke:#000000;stroke-width:0.86500001;stroke-linecap:butt;stroke-linejoin:miter;stroke-miterlimit:4;stroke-dasharray:none;stroke-opacity:1" />
    <path
       inkscape:export-ydpi="306.87"
       inkscape:export-xdpi="306.87"
       style="fill:none;stroke:#000000;stroke-width:0.86500001;stroke-linecap:butt;stroke-linejoin:miter;stroke-miterlimit:4;stroke-dasharray:none;stroke-opacity:1"
       d="m 80.1005,250.24759 c 0,0 5.94674,-6.74856 3.4745,-7.61718 -2.47224,-0.26727 -1.73725,3.67495 0.53454,7.55036"
       id="path1148"
       inkscape:connector-curvature="0"
       sodipodi:nodetypes="ccc" />
    <path
       inkscape:export-ydpi="306.87"
       inkscape:export-xdpi="306.87"
       sodipodi:nodetypes="ccc"
       inkscape:connector-curvature="0"
       id="path1150"
       d="m 80.1005,250.24759 c 0,0 5.94674,-6.74856 3.4745,-7.61718 -2.47224,-0.26727 -1.73725,3.67495 0.53454,7.55036"
       style="fill:none;stroke:#000000;stroke-width:0.86500001;stroke-linecap:butt;stroke-linejoin:miter;stroke-miterlimit:4;stroke-dasharray:none;stroke-opacity:1" />
    <path
       inkscape:export-ydpi="306.87"
       inkscape:export-xdpi="306.87"
       style="fill:none;stroke:#000000;stroke-width:0.86500001;stroke-linecap:butt;stroke-linejoin:miter;stroke-miterlimit:4;stroke-dasharray:none;stroke-opacity:1"
       d="m 80.1005,250.24759 c 0,0 5.94674,-6.74856 3.4745,-7.61718 -2.47224,-0.26727 -1.73725,3.67495 0.53454,7.55036"
       id="path1152"
       inkscape:connector-curvature="0"
       sodipodi:nodetypes="ccc" />
    <path
       inkscape:export-ydpi="306.87"
       inkscape:export-xdpi="306.87"
       style="fill:none;stroke:#000000;stroke-width:0.86500001;stroke-linecap:butt;stroke-linejoin:miter;stroke-miterlimit:4;stroke-dasharray:none;stroke-opacity:1"
       d="m 85.96696,242.92244 h 2.74033"
       id="path1154"
       inkscape:connector-curvature="0" />
    <path
       inkscape:export-ydpi="306.87"
       inkscape:export-xdpi="306.87"
       inkscape:connector-curvature="0"
       id="path1156"
       d="m 87.33713,241.55228 v 2.74033"
       style="fill:none;stroke:#000000;stroke-width:0.86500001;stroke-linecap:butt;stroke-linejoin:miter;stroke-miterlimit:4;stroke-dasharray:none;stroke-opacity:1" />
  </g>
</svg>
